<?xml version="1.0" encoding="iso-8859-1"?>
<!-- Generator: Adobe Illustrator 19.0.0, SVG Export Plug-In . SVG Version: 6.00 Build 0)  -->
<svg version="1.1" id="Layer_1" xmlns="http://www.w3.org/2000/svg" xmlns:xlink="http://www.w3.org/1999/xlink" x="0px" y="0px"
	 viewBox="0 0 512 512" style="enable-background:new 0 0 512 512;" xml:space="preserve">
<g>
	<g>
		<path d="M367.37,243.13c-10.26-10.26-21.688-18.929-33.982-25.886c0.068-0.406,0.112-0.82,0.112-1.245v-6.134
			c0-15.027-9.021-28.49-22.5-34.378V55c0-30.327-24.673-55-55-55c-30.327,0-55,24.673-55,55v120.537
			c-13.47,5.877-22.5,19.355-22.5,34.383v11.752c-0.005,0.292,0.009,0.586,0.038,0.879c0.004,0.037,0.011,0.072,0.015,0.109
			c0.024,0.206,0.053,0.411,0.094,0.616c0.014,0.072,0.035,0.142,0.051,0.214c0.038,0.164,0.077,0.328,0.126,0.491
			c0.031,0.104,0.071,0.204,0.106,0.306c0.045,0.128,0.087,0.256,0.14,0.382c0.053,0.128,0.115,0.251,0.175,0.376
			c0.042,0.087,0.076,0.176,0.122,0.262c0.007,0.013,0.015,0.024,0.022,0.037c0.063,0.117,0.134,0.228,0.203,0.341
			c0.062,0.103,0.121,0.209,0.187,0.308c0.013,0.019,0.028,0.037,0.041,0.056c0.537,0.783,1.202,1.437,1.954,1.948
			c0.012,0.008,0.023,0.018,0.035,0.026c0.137,0.092,0.28,0.174,0.422,0.257c0.07,0.041,0.138,0.087,0.21,0.125
			c0.096,0.052,0.196,0.094,0.294,0.141c0.123,0.06,0.244,0.123,0.371,0.176c0.048,0.02,0.098,0.035,0.146,0.054
			c0.458,0.181,0.937,0.316,1.433,0.404c0.178,0.032,0.356,0.063,0.537,0.082c0.04,0.004,0.082,0.004,0.122,0.007
			c0.211,0.019,0.423,0.031,0.636,0.032c0.007,0,0.013,0.001,0.02,0.001c0.044,0,0.087-0.006,0.132-0.007
			c0.198-0.003,0.395-0.011,0.593-0.03c0.088-0.008,0.174-0.024,0.261-0.036c0.154-0.02,0.307-0.04,0.46-0.07
			c0.127-0.025,0.251-0.059,0.377-0.09c0.109-0.027,0.218-0.051,0.326-0.084c0.168-0.05,0.332-0.111,0.495-0.172
			c0.064-0.024,0.128-0.044,0.191-0.07c0.211-0.086,0.416-0.183,0.616-0.287c0.017-0.009,0.034-0.015,0.051-0.024
			c0.01-0.005,0.02-0.01,0.03-0.015c0.018-0.01,0.037-0.018,0.054-0.028C209.902,217.668,232.865,212,256,212
			c38.063,0,73.849,14.822,100.763,41.737c26.915,26.915,41.737,62.7,41.737,100.763c0,78.575-63.925,142.5-142.5,142.5
			c-38.063,0-73.849-14.822-100.763-41.737c-26.915-26.915-41.737-62.7-41.737-100.763c0-43.437,19.45-83.962,53.364-111.187
			c3.229-2.593,3.746-7.313,1.153-10.543c-2.593-3.229-7.313-3.748-10.544-1.154C119.995,261.703,98.5,306.492,98.5,354.5
			c0,42.07,16.383,81.622,46.13,111.37C174.378,495.617,213.93,512,256,512c86.846,0,157.5-70.654,157.5-157.5
			C413.5,312.43,397.117,272.878,367.37,243.13z M256,197c-21.508,0-42.879,4.452-62.5,12.919
			c0.001-10.078,6.757-18.99,16.426-21.672l0.541-0.14c3.267-0.888,5.533-3.853,5.533-7.237V55c0-22.056,17.944-40,40-40
			c22.056,0,40,17.944,40,40v125.815c0,3.394,2.279,6.364,5.557,7.244l0.439,0.112c9.712,2.671,16.496,11.584,16.503,21.679
			C299.025,201.431,277.855,197,256,197z"/>
	</g>
</g>
<g>
	<g>
		<path d="M256,242c-62.033,0-112.5,50.467-112.5,112.5S193.967,467,256,467s112.5-50.467,112.5-112.5S318.033,242,256,242z
			 M256,452c-53.762,0-97.5-43.738-97.5-97.5c0-53.762,43.738-97.5,97.5-97.5c53.762,0,97.5,43.738,97.5,97.5
			C353.5,408.262,309.762,452,256,452z"/>
	</g>
</g>
<g>
	<g>
		<path d="M304.335,326.875c-2.929-2.928-7.678-2.929-10.606,0c-1.351,1.35-3.145,2.093-5.053,2.093s-3.703-0.743-5.052-2.093
			c-2.786-2.786-2.786-7.319,0-10.104c2.929-2.929,2.929-7.678-0.001-10.607c-2.928-2.929-7.677-2.928-10.606,0
			c-6.769,6.771-8.206,16.862-4.358,25.069l-8.79,8.79c-1.237-0.33-2.53-0.523-3.87-0.523c-8.284,0-15,6.716-15,15
			c0,1.341,0.193,2.634,0.523,3.87l-19.511,19.512l0.002-6.932c0.002-6.8-8.219-10.207-13.028-5.398
			c-1.431,1.431-2.235,3.372-2.235,5.396v17.802c0,8.284,6.716,15,15,15h17.802c2.024,0,3.965-0.804,5.396-2.235
			c4.808-4.808,1.401-13.03-5.399-13.028l-6.932,0.002l19.512-19.512c1.237,0.33,2.53,0.523,3.87,0.523c8.284,0,15-6.716,15-15
			c0-1.341-0.193-2.634-0.523-3.87l8.781-8.781c2.912,1.372,6.104,2.119,9.419,2.119c5.915,0,11.476-2.304,15.658-6.486
			C307.264,334.553,307.264,329.804,304.335,326.875z"/>
	</g>
</g>
<g>
	<g>
		<path d="M318.818,396.169c-3.204-2.622-7.93-2.151-10.554,1.054c-1.414,1.728-2.939,3.412-4.535,5.008
			c-2.928,2.93-2.928,7.678,0.001,10.606c1.465,1.465,3.383,2.196,5.303,2.196c1.92,0,3.839-0.732,5.304-2.197
			c1.945-1.946,3.808-4.003,5.535-6.113C322.495,403.518,322.023,398.792,318.818,396.169z"/>
	</g>
</g>
<g>
	<g>
		<path d="M331.335,354.246c-4.126-0.404-7.786,2.63-8.18,6.753c-0.42,4.395-1.274,8.761-2.537,12.979
			c-1.188,3.968,1.066,8.147,5.035,9.335c0.717,0.215,1.441,0.317,2.153,0.317c3.228,0,6.209-2.101,7.182-5.352
			c1.542-5.152,2.585-10.485,3.098-15.851C338.481,358.303,335.458,354.641,331.335,354.246z"/>
	</g>
</g>
<g>
	<g>
		<path d="M334.902,330.446c-1.565-5.164-3.647-10.188-6.188-14.932c-1.956-3.652-6.501-5.026-10.152-3.071
			c-3.651,1.955-5.026,6.5-3.071,10.151c2.076,3.878,3.778,7.983,5.057,12.204c0.981,3.239,3.957,5.326,7.174,5.326
			c0.721,0,1.454-0.104,2.179-0.324C333.865,338.598,336.104,334.41,334.902,330.446z"/>
	</g>
</g>
<g>
	<g>
		<path d="M308.288,290.68c-4.173-3.424-8.696-6.442-13.444-8.974c-3.654-1.946-8.198-0.564-10.146,3.092
			c-1.948,3.656-0.564,8.199,3.091,10.147c3.878,2.066,7.574,4.533,10.984,7.331c1.396,1.146,3.079,1.702,4.753,1.702
			c2.168,0,4.32-0.936,5.803-2.743C311.956,298.033,311.49,293.307,308.288,290.68z"/>
	</g>
</g>
<g>
	<g>
		<path d="M264.056,272.427c-5.336-0.519-10.808-0.518-16.146,0.003c-4.123,0.403-7.138,4.072-6.734,8.194
			c0.379,3.874,3.642,6.771,7.456,6.771c0.244,0,0.491-0.013,0.739-0.036c4.373-0.428,8.861-0.429,13.231-0.003
			c4.129,0.408,7.79-2.614,8.192-6.738C271.195,276.496,268.179,272.828,264.056,272.427z"/>
	</g>
</g>
<g>
	<g>
		<path d="M227.272,284.81c-1.951-3.656-6.494-5.039-10.148-3.085c-4.748,2.533-9.27,5.555-13.44,8.979
			c-3.201,2.628-3.665,7.354-1.037,10.556c1.484,1.805,3.634,2.74,5.802,2.74c1.675,0,3.36-0.558,4.755-1.704
			c3.409-2.799,7.104-5.269,10.983-7.339C227.841,293.007,229.223,288.464,227.272,284.81z"/>
	</g>
</g>
<g>
	<g>
		<path d="M193.417,312.47c-3.65-1.956-8.196-0.579-10.151,3.073c-2.541,4.746-4.621,9.771-6.185,14.934
			c-1.2,3.964,1.04,8.151,5.004,9.351c0.725,0.22,1.457,0.324,2.177,0.324c3.218,0,6.194-2.089,7.175-5.328
			c1.278-4.22,2.978-8.326,5.053-12.203C198.445,318.97,197.069,314.425,193.417,312.47z"/>
	</g>
</g>
<g>
	<g>
		<path d="M191.39,374.005c-1.262-4.211-2.117-8.578-2.541-12.979c-0.396-4.123-4.059-7.142-8.184-6.747
			c-4.122,0.396-7.143,4.06-6.746,8.183c0.517,5.371,1.561,10.703,3.103,15.849c0.974,3.25,3.954,5.349,7.181,5.349
			c0.713,0,1.438-0.103,2.156-0.317C190.327,382.154,192.579,377.973,191.39,374.005z"/>
	</g>
</g>
<g>
	<g>
		<path d="M208.271,402.231c-1.596-1.596-3.121-3.28-4.535-5.008c-2.624-3.204-7.349-3.678-10.554-1.054
			c-3.205,2.623-3.677,7.349-1.054,10.554c1.727,2.11,3.589,4.167,5.535,6.113c1.465,1.465,3.384,2.197,5.304,2.197
			c1.919,0,3.838-0.732,5.303-2.196C211.199,409.908,211.2,405.16,208.271,402.231z"/>
	</g>
</g>
<g>
	<g>
		<path d="M256,47.5c-4.143,0-7.5,3.358-7.5,7.5v52c0,4.142,3.357,7.5,7.5,7.5s7.5-3.358,7.5-7.5V55
			C263.5,50.858,260.143,47.5,256,47.5z"/>
	</g>
</g>
<g>
	<g>
		<path d="M263.5,153.023V136c0-4.142-3.357-7.5-7.5-7.5s-7.5,3.358-7.5,7.5v17.023c-4.479,2.595-7.5,7.428-7.5,12.977
			c0,8.284,6.716,15,15,15s15-6.716,15-15C271,160.451,267.979,155.618,263.5,153.023z"/>
	</g>
</g>
<g>
</g>
<g>
</g>
<g>
</g>
<g>
</g>
<g>
</g>
<g>
</g>
<g>
</g>
<g>
</g>
<g>
</g>
<g>
</g>
<g>
</g>
<g>
</g>
<g>
</g>
<g>
</g>
<g>
</g>
</svg>
